<svg width="181" height="37" viewBox="0 0 181 37" fill="none" xmlns="http://www.w3.org/2000/svg">
<ellipse cx="18.4831" cy="18.5" rx="18.4831" ry="18.5" fill="#3A5B62"/>
<path d="M84.4223 18.5C84.4223 28.4416 76.3706 36.5 66.4392 36.5C56.5078 36.5 48.4561 28.4416 48.4561 18.5C48.4561 8.55844 56.5078 0.5 66.4392 0.5C76.3706 0.5 84.4223 8.55844 84.4223 18.5Z" stroke="#F6FDFF"/>
<path d="M132.378 18.5C132.378 28.4416 124.327 36.5 114.395 36.5C104.464 36.5 96.4121 28.4416 96.4121 18.5C96.4121 8.55844 104.464 0.5 114.395 0.5C124.327 0.5 132.378 8.55844 132.378 18.5Z" stroke="#F6FDFF"/>
<path d="M180.335 18.5C180.335 28.4416 172.284 36.5 162.352 36.5C152.421 36.5 144.369 28.4416 144.369 18.5C144.369 8.55844 152.421 0.5 162.352 0.5C172.284 0.5 180.335 8.55844 180.335 18.5Z" stroke="#F6FDFF"/>
<path d="M63.7327 12C61.6444 12 59.9453 13.7017 59.9453 15.7923V21.2087C59.9453 23.2991 61.6454 25 63.7342 25H69.1456C71.2341 25 72.9335 23.2983 72.9335 21.2077V15.7908C72.9335 13.7007 71.2333 12 69.1446 12H63.7327ZM70.3358 14.08C70.6226 14.08 70.8554 14.313 70.8554 14.6C70.8554 14.887 70.6226 15.12 70.3358 15.12C70.0491 15.12 69.8163 14.887 69.8163 14.6C69.8163 14.313 70.0491 14.08 70.3358 14.08ZM66.4394 15.12C68.3019 15.12 69.8163 16.6358 69.8163 18.5C69.8163 20.3642 68.3016 21.88 66.4394 21.88C64.5769 21.88 63.0625 20.3639 63.0625 18.5C63.0625 16.6361 64.5769 15.12 66.4394 15.12ZM66.4394 16.16C65.1481 16.16 64.1015 17.2075 64.1015 18.5C64.1015 19.7925 65.1481 20.84 66.4394 20.84C67.7307 20.84 68.7773 19.7925 68.7773 18.5C68.7773 17.2075 67.7307 16.16 66.4394 16.16Z" fill="#3A5B62"/>
<path d="M18.4834 11C14.3454 11 10.9902 14.3756 10.9902 18.5387C10.9902 22.3182 13.7578 25.4392 17.3632 25.9843V20.5365H15.5092V18.5549H17.3632V17.2363C17.3632 15.0532 18.4203 14.0952 20.2238 14.0952C21.0873 14.0952 21.5446 14.1599 21.7605 14.1889V15.9184H20.5305C19.765 15.9184 19.4976 16.6491 19.4976 17.472V18.5549H21.7412L21.4371 20.5365H19.4976V26C23.1548 25.5013 25.9766 22.3553 25.9766 18.5387C25.9766 14.3756 22.6216 11 18.4834 11Z" fill="#F6FDFF"/>
<path d="M124.886 13.7736C124.225 14.0768 123.514 14.279 122.764 14.3746C123.527 13.906 124.113 13.1586 124.388 12.2755C123.675 12.7086 122.885 13.0265 122.044 13.1941C121.373 12.4572 120.415 12 119.354 12C117.316 12 115.664 13.6957 115.664 15.7862C115.664 16.082 115.698 16.3702 115.761 16.65C112.695 16.4905 109.976 14.9814 108.156 12.691C107.837 13.2505 107.657 13.906 107.657 14.5976C107.657 15.9121 108.307 17.069 109.298 17.7509C108.693 17.7316 108.124 17.5575 107.625 17.278C107.625 17.2895 107.625 17.3064 107.625 17.3224C107.625 19.1592 108.897 20.6886 110.584 21.0368C110.275 21.1242 109.95 21.1728 109.614 21.1728C109.376 21.1728 109.144 21.1448 108.919 21.103C109.388 22.604 110.751 23.7013 112.364 23.7336C111.102 24.7474 109.511 25.3546 107.782 25.3546C107.483 25.3546 107.191 25.337 106.902 25.3008C108.536 26.372 110.476 27 112.558 27C119.344 27 123.057 21.2296 123.057 16.2238C123.057 16.0598 123.052 15.8964 123.044 15.735C123.769 15.2054 124.393 14.537 124.886 13.7736Z" fill="#3A5B62"/>
<path d="M172.312 14.2344C172.137 13.3409 171.301 12.6903 170.33 12.4872C168.878 12.2031 166.191 12 163.284 12C160.378 12 157.648 12.2031 156.194 12.4872C155.225 12.6903 154.388 13.2997 154.212 14.2344C154.035 15.25 153.859 16.6719 153.859 18.5C153.859 20.3281 154.035 21.75 154.255 22.7656C154.432 23.6591 155.268 24.3097 156.237 24.5128C157.778 24.7969 160.421 25 163.328 25C166.236 25 168.878 24.7969 170.42 24.5128C171.388 24.3097 172.224 23.7003 172.402 22.7656C172.577 21.75 172.797 20.2869 172.842 18.5C172.753 16.6719 172.532 15.25 172.312 14.2344ZM160.906 21.3438V15.6562L166.279 18.5L160.906 21.3438Z" fill="#3A5B62"/>
</svg>
